inDegrees=yes
name=ik_data_dance
DataType=double
version=3
OpenSimVersion=4.5
endheader
time	pelvis_tilt	pelvis_list	pelvis_rotation	pelvis_tx	pelvis_ty	pelvis_tz	hip_flexion_r	hip_adduction_r	hip_rotation_r	knee_angle_r	knee_angle_r_beta	ankle_angle_r	subtalar_angle_r	mtp_angle_r	hip_flexion_l	hip_adduction_l	hip_rotation_l	knee_angle_l	knee_angle_l_beta	ankle_angle_l	subtalar_angle_l	mtp_angle_l	lumbar_extension	lumbar_bending	lumbar_rotation	arm_flex_r	arm_add_r	arm_rot_r	elbow_flex_r	pro_sup_r	wrist_flex_r	wrist_dev_r	arm_flex_l	arm_add_l	arm_rot_l	elbow_flex_l	pro_sup_l	wrist_flex_l	wrist_dev_l
50	21.52216524268866	-20.99339741930761	-35.23074800904233	0	0.9399999999999999	0	44.46173478422665	-9.960166388460459	0	60.29292653424803	1.052310083685682	-4.987566264652227	0	0	44.46173478422665	-9.960166388460459	0	60.29292653424803	1.052310083685682	-4.987566264652227	0	0	27.22189581390973	-16.78352091413734	-33.86902403998774	22.15359483744232	-16.28312529993984	-32.04071492401648	27.43464807369456	44.95866974863046	0	0	0	-12.9994218100679	0	75.01966028901275	44.95866974863046	0	0
51	24.3871079959399	-23.32188285354021	-29.29155670530445	0	0.9399999999999999	0	44.47766753493192	-9.962956435705303	0	60.28428371455029	1.0521592380253	-4.988602851448374	0	0	44.47766753493192	-9.962956435705303	0	60.28428371455029	1.0521592380253	-4.988602851448374	0	0	32.80530458265571	-13.02314473621765	-30.97846712192137	25.84492388060497	-8.247029554546454	-33.04737976519147	37.34062181353967	44.96114648389611	0	0	0	-13.03557605696562	0	75.01908356064747	44.96114648389611	0	0
52	26.34011928036876	-25.07438975503066	-23.17220806036767	0	0.9399999999999999	0	44.500076163067	-9.966653950453249	0	60.27203820273225	1.051945513525483	-4.989950533685124	0	0	44.500076163067	-9.966653950453249	0	60.27203820273225	1.051945513525483	-4.989950533685124	0	0	37.33397983993831	-9.412594996512112	-27.35680981019008	29.17424937980512	-0.8013430130034833	-32.8565499448727	47.2395727028311	44.96447722132186	0	0	0	-13.08733319029883	0	75.01827241816879	44.96447722132186	0	0
53	27.6116295339959	-26.23024121286871	-18.29070462696272	0	0.9399999999999999	0	44.51552733981445	-9.969055303403451	0	60.2635877276977	1.051798024912773	-4.990808698952005	0	0	44.51552733981445	-9.969055303403451	0	60.2635877276977	1.051798024912773	-4.990808698952005	0	0	40.65475291745106	-6.585897918081336	-24.06095525052089	31.77252756587557	4.835638417754064	-31.94343141840598	52.07606720390962	44.96667291364909	0	0	0	-13.1236447433249	0	75.01771311843609	44.96667291364909	0	0
54	26.76020156842592	-25.75430038016029	-16.34324020436701	0	0.9399999999999999	0	44.5227216455791	-9.970136327379102	0	60.25965321417825	1.051729354697394	-4.991191117684375	0	0	44.5227216455791	-9.970136327379102	0	60.25965321417825	1.051729354697394	-4.991191117684375	0	0	40.33883449104106	-5.177425999289358	-22.66216445855584	31.1830240590027	6.535272035615342	-31.32966373309469	56.15607554959973	44.96766927104861	0	1.077613842297402e-35	0	-13.14073468131353	0	75.0174526994726	44.96766927104861	0	1.077613842297402e-35
55	26.15225134059967	-25.56616400429333	-19.97982896813461	0	0.9399999999999999	0	44.5332299978765	-9.971695427707411	0	60.25391726664642	1.051629243527242	-4.991740122657095	0	0	44.5332299978765	-9.971695427707411	0	60.25391726664642	1.051629243527242	-4.991740122657095	0	0	38.05207329713355	-8.223402710438751	-24.54592927248133	30.05285572151406	1.718053890040015	-31.03576264109205	46.47222537086045	44.96911103413852	0	0	0	-13.16578438787791	0	75.01707231870215	44.96911103413852	0	0
56	23.86801594457729	-24.2510739575413	-25.40280708843719	0	0.9399999999999999	0	44.55507597276107	-9.97484102501009	0	60.24197928778599	1.051420886490094	-4.992835948871349	0	0	44.55507597276107	-9.97484102501009	0	60.24197928778599	1.051420886490094	-4.992835948871349	0	0	32.82059455494353	-12.5660158196816	-27.37379604080582	26.60598139110855	-6.499047751373825	-30.45594141223917	36.70763675166391	44.97204263552986	0	0	0	-13.21830121800423	0	75.01628153831511	44.97204263552986	0	0
57	20.85828471892202	-24.22042448914286	-30.25507217126198	0	0.9399999999999999	0	44.57240502627331	-9.977166701966755	0	60.23252256476091	1.051255835536857	-4.993626364054601	0	0	44.57240502627331	-9.977166701966755	0	60.23252256476091	1.051255835536857	-4.993626364054601	0	0	27.90021297173642	-17.66857182583692	-29.06053189308247	23.97709462360381	-14.89889400889322	-28.81233464310008	22.33215312316291	44.97425003094474	0	0	0	-13.26074644802151	0	75.01565425988068	44.97425003094474	0	0
